<svg width="36" height="26" viewBox="0 0 36 26" fill="none" xmlns="http://www.w3.org/2000/svg">
<g clip-path="url(#clip0_701_81)">
<path d="M29.3997 0.134094C31.589 1.99645 33.7782 3.86025 35.9566 5.73492C33.8075 7.65604 31.573 9.49231 29.3902 11.38C29.3953 10.1169 29.3822 8.85447 29.3947 7.59213C28.01 7.5943 26.6253 7.58423 25.2414 7.59655C24.576 7.598 23.95 7.92844 23.5018 8.40526C19.5263 12.5198 15.5427 16.6272 11.5687 20.7432C11.1271 21.199 10.5112 21.4968 9.86773 21.491C7.33966 21.507 4.81071 21.4787 2.28338 21.5076C1.3439 21.4801 0.537946 20.6337 0.538675 19.704C0.492033 18.696 1.38552 17.8271 2.38103 17.7973C4.38882 17.7785 6.3988 17.8082 8.40659 17.7836C9.13902 17.7792 9.78399 17.3546 10.246 16.8184C14.161 12.7648 18.0804 8.71461 21.9976 4.66237C22.4378 4.18482 23.0704 3.89061 23.7234 3.87612C25.6138 3.86815 27.505 3.88337 29.3948 3.8688C29.3909 2.624 29.3808 1.37912 29.3997 0.134094Z" fill="url(#paint0_linear_701_81)"/>
<path d="M1.94872 3.86748C4.68165 3.84494 7.42412 3.86965 10.1614 3.86168C10.8668 3.83052 11.5854 4.09357 12.0649 4.61749C13.2025 5.78135 14.3278 6.95891 15.4589 8.12915C15.9223 8.60017 16.1767 9.28569 16.0156 9.93933C15.84 10.7393 15.0697 11.3755 14.2403 11.3676C13.6771 11.393 13.1581 11.1075 12.7434 10.7531C11.968 9.93136 11.2246 9.07772 10.4369 8.26683C9.98579 7.8103 9.33717 7.58494 8.70022 7.59363C6.66036 7.58494 4.6205 7.59943 2.58057 7.58711C1.76871 7.56247 0.902917 7.18123 0.603388 6.37984C0.14207 5.35953 0.84753 4.06386 1.94872 3.86748Z" fill="#8C8C8C"/>
<path d="M18.6225 14.28C19.3272 13.7199 20.4321 13.8011 21.0537 14.4481C21.9056 15.3162 22.7394 16.2025 23.5921 17.0699C24.0352 17.5344 24.6736 17.7996 25.3171 17.7931C26.677 17.788 28.0368 17.7989 29.3975 17.7866C29.3837 16.5467 29.3924 15.3067 29.3946 14.0669C31.6006 15.9249 33.7899 17.8025 35.9755 19.6844C33.7928 21.5649 31.5984 23.4316 29.4004 25.294C29.3727 24.0258 29.4033 22.757 29.3866 21.4888C27.494 21.4714 25.6013 21.4873 23.7087 21.4808C23.0564 21.475 22.4282 21.1656 21.9917 20.6902C20.7724 19.4388 19.5335 18.2069 18.3266 16.9446C17.6277 16.1859 17.783 14.8735 18.6225 14.28Z" fill="#8C8C8C"/>
</g>
<defs>
<linearGradient id="paint0_linear_701_81" x1="18.2468" y1="0.134094" x2="18.2181" y2="22.6374" gradientUnits="userSpaceOnUse">
<stop stop-color="#C12A23"/>
<stop offset="0.932655" stop-color="#102D71" stop-opacity="0.63"/>
<stop offset="0.9999" stop-color="#001AFF" stop-opacity="0.0260417"/>
<stop offset="1" stop-color="#0A3068" stop-opacity="0.66"/>
</linearGradient>
<clipPath id="clip0_701_81">
<rect x="0.435486" y="0.0645142" width="35.5645" height="25.2903" rx="5" fill="white"/>
</clipPath>
</defs>
</svg>
